<?xml version="1.0" encoding="utf-8"?>
<!-- Generator: Adobe Illustrator 25.0.0, SVG Export Plug-In . SVG Version: 6.00 Build 0)  -->
<svg version="1.1" id="Capa_1" xmlns="http://www.w3.org/2000/svg" xmlns:xlink="http://www.w3.org/1999/xlink" x="0px" y="0px"
	 viewBox="0 0 512 512" style="enable-background:new 0 0 512 512;" xml:space="preserve">
<style type="text/css">
	.st0{fill:#7EB457;}
	.st1{fill:#79AD54;}
	.st2{fill:#74A650;}
	.st3{fill:#348FD9;}
	.st4{fill:#FFB531;}
	.st5{fill:#F98500;}
	.st6{fill:#FEC9A3;}
	.st7{fill:#FEC093;}
	.st8{fill:#FEB784;}
	.st9{fill:#3086CD;}
	.st10{fill:#2A71AD;}
	.st11{fill:#5F943A;}
</style>
<g id="Flat">
	<path class="st0" d="M392,400c0,13.3-10.7,24-24,24H144c-13.3,0-24-10.7-24-24c0-5.2,1.7-10.2,4.8-14.4L144,360V257.6
		c0-0.8,0-1.5,0-2.3c1.1-46.6,34.3-86.1,80-95.2h64c22.6,4.5,42.9,16.7,57.4,34.5c1.5,1.9,3,3.8,4.4,5.8
		c11.8,16.8,18.2,36.8,18.2,57.3V360l19.2,25.6C390.3,389.8,392,394.8,392,400L392,400z"/>
	<path class="st1" d="M238.6,175.2L249,208l-33.6,7.4L208,249l-32.8-10.4L152,264l-8-8.8c1.1-46.6,34.3-86.1,80-95.2h31.2
		L238.6,175.2z"/>
	<path class="st1" d="M392,400c0,13.3-10.7,24-24,24H144c-13.3,0-24-10.7-24-24c0-5.2,1.7-10.2,4.8-14.4L144,360v-1.4
		c76-30.9,149.4-81.2,205.8-158.3c11.8,16.8,18.2,36.8,18.2,57.3V360l19.2,25.6C390.3,389.8,392,394.8,392,400L392,400z"/>
	<path class="st2" d="M224,160l-16-56h96l-16,56H224z"/>
	<path class="st3" d="M368,376h88v112h-88V376z"/>
	<path class="st4" d="M138,24l23.2,25.5L194,39l7.4,33.6L235,80l-10.4,32.8L250,136l-25.5,23.2L235,192l-33.6,7.4L194,233
		l-32.8-10.4L138,248l-23.2-25.5L82,233l-7.4-33.6L41,192l10.4-32.8L26,136l25.5-23.2L41,80l33.6-7.4L82,39l32.8,10.4L138,24z"/>
	<g>
		<path class="st5" d="M92.3,170.3l80-80l11.3,11.3l-80,80L92.3,170.3z"/>
		<path class="st5" d="M106,128c-13.3,0-24-10.7-24-24s10.7-24,24-24s24,10.7,24,24C130,117.2,119.2,128,106,128z M106,96
			c-4.4,0-8,3.6-8,8s3.6,8,8,8s8-3.6,8-8C114,99.6,110.4,96,106,96z"/>
		<path class="st5" d="M178,184c-13.3,0-24-10.7-24-24s10.7-24,24-24s24,10.7,24,24C202,173.2,191.2,184,178,184z M178,152
			c-4.4,0-8,3.6-8,8s3.6,8,8,8s8-3.6,8-8C186,155.6,182.4,152,178,152z"/>
	</g>
	<path class="st6" d="M368,376v112H198.7c-14.9,0-29.6-3.5-42.9-10.1l-93.3-46.6c-8.9-4.4-14.4-13.5-14.5-23.4v-1.7
		c0-14.4,11.7-26.1,26.1-26.1c3.8,0,7.5,0.8,10.9,2.4l91,41.7h16c-13.3,0-24-10.7-24-24s10.7-24,24-24h61.3l0.8-0.5
		c32-19.2,71.6-20.7,105-4l2,1L368,376z"/>
	<path class="st7" d="M368,376v112H198.7c-9.3,0-18.5-1.3-27.4-4C264,456,312,424,361,372.5L368,376z"/>
	<path class="st8" d="M192,416h64c4.4,0,8,3.6,8,8s-3.6,8-8,8h-64c-4.4,0-8-3.6-8-8S187.6,416,192,416z"/>
	<path class="st9" d="M368,448h88v40h-88V448z"/>
	<circle class="st10" cx="408" cy="448" r="16"/>
</g>
<g>
	<path class="st11" d="M273.7,248.1c1.3,2,2.3,4.3,3,6.7H289c1.4,0,2.5,1.1,2.5,2.5v8.4c0,1.4-1.1,2.5-2.5,2.5h-11.1
		c-1.5,15.6-12.9,26.3-29,26.8l31.6,29.2c1.7,1.6,0.6,4.4-1.7,4.4h-17.3c-0.7,0-1.3-0.3-1.7-0.7L225.3,296c-0.5-0.5-0.8-1.1-0.8-1.8
		V283c0-1.4,1.1-2.5,2.5-2.5h17.6c8.8,0,14.4-4.7,15.7-12.3H227c-1.4,0-2.5-1.1-2.5-2.5v-8.4c0-1.4,1.1-2.5,2.5-2.5h30.6
		c-2.7-3.6-7-5.7-12.8-5.7H227c-1.4,0-2.5-1.1-2.5-2.5v-9.4c0-1.4,1.1-2.5,2.5-2.5h62c1.4,0,2.5,1.1,2.5,2.5v8.4
		c0,1.4-1.1,2.5-2.5,2.5H273.7z"/>
</g>
</svg>
